<svg width="33" height="29" viewBox="0 0 33 29" fill="none" xmlns="http://www.w3.org/2000/svg">
<path fill-rule="evenodd" clip-rule="evenodd" d="M0.853516 9.19064H27.0666V23.3006C27.0666 24.6094 25.996 25.6784 24.6889 25.6784H3.23308C1.92427 25.6784 0.853516 24.6095 0.853516 23.3006V9.19064Z" fill="#FFA000"/>
<path fill-rule="evenodd" clip-rule="evenodd" d="M27.0666 9.19063L15.4107 1.11401C14.6126 0.561383 13.3493 0.53232 12.6021 1.05038L0.853516 9.19063L12.6021 17.3345C13.3493 17.8526 14.6126 17.8235 15.4107 17.2709L27.0666 9.19063Z" fill="#FFB300"/>
<path fill-rule="evenodd" clip-rule="evenodd" d="M26.0993 25.2112L15.2396 16.2074C14.5815 15.6602 13.3799 15.6402 12.7619 16.1511L1.82031 25.2112C2.22845 25.5151 2.72388 25.679 3.23275 25.6784H24.6886C25.197 25.6793 25.692 25.5154 26.0993 25.2112Z" fill="#FB8C00"/>
<path fill-rule="evenodd" clip-rule="evenodd" d="M23.0683 5.19339C23.0683 4.46627 22.4738 3.87183 21.7467 3.87183H6.17522C5.44991 3.87183 4.85547 4.46627 4.85547 5.19339V11.963L11.9141 16.8548L12.763 16.1513C13.3811 15.6405 14.5827 15.6605 15.2407 16.2077L16.0151 16.8494L23.0683 11.9631V5.19339Z" fill="#D4E1F4"/>
<path d="M9.01196 6.90744C9.01196 6.78836 9.05927 6.67416 9.14347 6.58995C9.22768 6.50575 9.34188 6.45844 9.46096 6.45844H18.4611C18.7091 6.45844 18.9101 6.65944 18.9101 6.90744C18.9101 7.15544 18.7091 7.35644 18.4611 7.35644H9.46096C9.402 7.35645 9.34361 7.34484 9.28913 7.32228C9.23465 7.29972 9.18515 7.26665 9.14345 7.22495C9.10176 7.18326 9.06869 7.13376 9.04612 7.07928C9.02356 7.0248 9.01195 6.96641 9.01196 6.90744ZM18.4611 9.3215H9.46096C9.21296 9.3215 9.01196 9.52251 9.01196 9.7705C9.01196 10.0185 9.21296 10.2195 9.46096 10.2195H18.4611C18.7091 10.2195 18.9101 10.0185 18.9101 9.7705C18.9101 9.52251 18.7091 9.3215 18.4611 9.3215ZM18.4611 12.1828H9.46096C9.21296 12.1828 9.01196 12.3838 9.01196 12.6318C9.01196 12.8798 9.21296 13.0808 9.46096 13.0808H18.4611C18.7091 13.0808 18.9101 12.8798 18.9101 12.6318C18.9101 12.3838 18.7091 12.1828 18.4611 12.1828Z" fill="#AAAAC1"/>
<path fill-rule="evenodd" clip-rule="evenodd" d="M27.0662 28.9706C30.2183 28.9706 32.7905 26.4002 32.7905 23.2481C32.7905 20.0941 30.2183 17.5237 27.0662 17.5237C23.914 17.5237 21.3418 20.0941 21.3418 23.2481C21.3418 26.4002 23.914 28.9706 27.0662 28.9706Z" fill="#FC4654"/>
<path d="M30.6566 24.8749C30.609 24.8749 30.5617 24.8673 30.5165 24.8524L26.9263 23.6744C26.8364 23.6449 26.7581 23.5878 26.7026 23.5112C26.6471 23.4346 26.6172 23.3424 26.6172 23.2478V19.9448C26.6172 19.6968 26.8182 19.4958 27.0662 19.4958C27.3142 19.4958 27.5152 19.6968 27.5152 19.9448V22.9226L30.7964 23.9992C30.8524 24.0175 30.9043 24.0468 30.949 24.0852C30.9937 24.1236 31.0304 24.1705 31.0571 24.2231C31.0837 24.2757 31.0997 24.333 31.1041 24.3918C31.1086 24.4506 31.1014 24.5097 31.083 24.5657C31.0535 24.6556 30.9964 24.7339 30.9199 24.7894C30.8433 24.8449 30.7511 24.8749 30.6566 24.8749Z" fill="white"/>
</svg>
