<svg width="26" height="33" viewBox="0 0 26 33" fill="none" xmlns="http://www.w3.org/2000/svg">
<path fill-rule="evenodd" clip-rule="evenodd" d="M4.85068 1.95654H24.6361C25.3864 1.95654 25.9996 2.57148 25.9996 3.32173V31.4599C25.9996 32.2101 25.3864 32.825 24.6361 32.825H4.85068C4.10043 32.825 3.4873 32.2101 3.4873 31.4599V3.32173C3.4873 2.57148 4.10049 1.95654 4.85068 1.95654Z" fill="#518EF8"/>
<path fill-rule="evenodd" clip-rule="evenodd" d="M2.17013 6.27188H4.80563C5.46451 6.27188 6.00213 6.81126 6.00213 7.47013C6.00213 8.12726 5.46451 8.66663 4.80563 8.66663H2.17013C1.51126 8.66663 0.973633 8.12726 0.973633 7.47013C0.973633 6.81126 1.51126 6.27188 2.17013 6.27188ZM2.17013 12.8869H4.80563C5.46451 12.8869 6.00213 13.4245 6.00213 14.0834C6.00213 14.7423 5.46451 15.2816 4.80563 15.2816H2.17013C1.51126 15.2816 0.973633 14.7423 0.973633 14.0834C0.973633 13.4246 1.51126 12.8869 2.17013 12.8869ZM2.17013 19.5002H4.80563C5.46451 19.5002 6.00213 20.0396 6.00213 20.6984C6.00213 21.3573 5.46451 21.8967 4.80563 21.8967H2.17013C1.51126 21.8967 0.973633 21.3573 0.973633 20.6984C0.973633 20.0396 1.51126 19.5002 2.17013 19.5002ZM2.17013 26.1153H4.80563C5.46451 26.1153 6.00213 26.6546 6.00213 27.3135C6.00213 27.9724 5.46451 28.51 4.80563 28.51H2.17013C1.51126 28.51 0.973633 27.9724 0.973633 27.3135C0.973633 26.6546 1.51126 26.1153 2.17013 26.1153Z" fill="#FCA92A"/>
<path fill-rule="evenodd" clip-rule="evenodd" d="M3.59682 2.93357H23.3823C24.1325 2.93357 24.7456 3.54676 24.7456 4.29701V32.4369C24.7456 32.5704 24.7263 32.7004 24.6894 32.8234C25.4151 32.7953 26.0001 32.1927 26.0001 31.46V3.32188C26.0001 2.57163 25.3869 1.9567 24.6367 1.9567H4.85125C4.23632 1.9567 3.71094 2.37132 3.54407 2.93532C3.56163 2.93357 3.57919 2.93357 3.59682 2.93357Z" fill="#3478ED"/>
<path fill-rule="evenodd" clip-rule="evenodd" d="M1.89193 6.8061H4.52568C5.18455 6.8061 5.72393 7.34547 5.72393 8.00435C5.72393 8.09572 5.71337 8.18535 5.69406 8.26966C5.89203 8.05047 6.00159 7.76559 6.00149 7.47022C6.00149 6.81135 5.46387 6.27197 4.80499 6.27197H2.16955C1.60205 6.27197 1.12412 6.67078 1.00293 7.20316C1.22249 6.96066 1.5388 6.8061 1.89193 6.8061ZM1.89193 13.4211H4.52568C5.18455 13.4211 5.72393 13.9605 5.72393 14.6176C5.72393 14.7107 5.71337 14.7986 5.69406 14.8847C5.89234 14.665 6.00191 14.3794 6.00149 14.0835C6.00149 13.4246 5.46387 12.887 4.80499 12.887H2.16955C1.60205 12.887 1.12412 13.2858 1.00293 13.8182C1.22249 13.574 1.5388 13.4211 1.89193 13.4211ZM1.89193 20.0344H4.52568C5.18455 20.0344 5.72393 20.5738 5.72393 21.2327C5.72393 21.324 5.71337 21.4137 5.69406 21.4997C5.89234 21.28 6.00191 20.9945 6.00149 20.6985C6.00149 20.0397 5.46387 19.5003 4.80499 19.5003H2.16955C1.60205 19.5003 1.12412 19.9008 1.00293 20.4315C1.22249 20.189 1.5388 20.0344 1.89193 20.0344ZM1.89193 26.6495H4.52568C5.18455 26.6495 5.72393 27.1888 5.72393 27.8477C5.72393 27.9391 5.71337 28.0287 5.69406 28.113C5.89204 27.8939 6.0016 27.609 6.00149 27.3136C6.00149 26.6547 5.46387 26.1153 4.80499 26.1153H2.16955C1.60205 26.1153 1.12412 26.5142 1.00293 27.0465C1.22249 26.8041 1.5388 26.6495 1.89193 26.6495Z" fill="#F7941D"/>
<path fill-rule="evenodd" clip-rule="evenodd" d="M15.6746 0.825195H20.5959C21.1072 0.825195 21.5254 1.24338 21.5254 1.75463V16.0565L18.1344 12.6655L14.7451 16.0565V1.75463C14.7452 1.24338 15.1616 0.825195 15.6746 0.825195Z" fill="#FDC92F"/>
<path fill-rule="evenodd" clip-rule="evenodd" d="M15.6743 0.825195H20.5956C21.1069 0.825195 21.5251 1.24338 21.5251 1.75463V2.93357H14.7449V1.75463C14.7449 1.24338 15.1612 0.825195 15.6743 0.825195Z" fill="#F0B916"/>
</svg>
